# xmcd CD database file
#
# Track frame offsets:
#	150
#	13770
#	27315
#	38900
#	51965
#	66474
#	79024
#	92624
#	105321
#	118954
#	131901
#	143817
#	157339
#	170767
#	187017
#	198535
#	214375
#	227533
#
# Disc length: 3206 seconds
#
# Revision: 0
# Processed by: cddbd v1.5.1PL0 Copyright (c) Steve Scherf et al.
# Submitted via: CDex 1.51
#
DISCID=100c8412
DTITLE=Lightin Hopkins - The Blues - King Of Texas - 1946-1952 - CD2
DYEAR=2004
DGENRE=Blues
TTITLE0=Long Way From Texas
TTITLE1=New Short Haired Woman
TTITLE2=My Heart To Weep
TTITLE3=Home In The Woods
TTITLE4=Papa Bones Boogie
TTITLE5=Lightnin's Gone Again
TTITLE6=Dirty House Blues
TTITLE7=When I Started Hoboing
TTITLE8=One Kind A Favor
TTITLE9=Broken Hearted Blues
TTITLE10=Tap Dance Boogie
TTITLE11=You'll Do Too
TTITLE12=Sad News From Korea
TTITLE13=Let Me Fly Your Kite
TTITLE14=Gone With The Wind
TTITLE15=She's Almost Dead
TTITLE16=Ain't It A Shame
TTITLE17=My Mama Told Me
EXTD=YEAR: 2004
EXTT0=
EXTT1=
EXTT2=
EXTT3=
EXTT4=
EXTT5=
EXTT6=
EXTT7=
EXTT8=
EXTT9=
EXTT10=
EXTT11=
EXTT12=
EXTT13=
EXTT14=
EXTT15=
EXTT16=
EXTT17=
PLAYORDER=
